<?xml version="1.0" encoding="UTF-8"?>
<!DOCTYPE svg PUBLIC "-//W3C//DTD SVG 1.1//EN" "http://www.w3.org/Graphics/SVG/1.1/DTD/svg11.dtd">
<!-- Creator: CorelDRAW X7 -->
<svg xmlns="http://www.w3.org/2000/svg" xml:space="preserve" width="210mm" height="297mm" version="1.1" style="shape-rendering:geometricPrecision; text-rendering:geometricPrecision; image-rendering:optimizeQuality; fill-rule:evenodd; clip-rule:evenodd"
viewBox="0 0 21000 29700"
 xmlns:xlink="http://www.w3.org/1999/xlink">
 <defs>
  <style type="text/css">
   <![CDATA[
    .fil0 {fill:black}
   ]]>
  </style>
 </defs>
 <g id="Layer_x0020_1">
  <metadata id="CorelCorpID_0Corel-Layer"/>
  <path class="fil0" d="M12450 12450l0 -1500 -4200 -150 0 12300 4200 0 0 -6900c0,-1500 900,-2550 2250,-2400 2100,0 1800,2700 1800,4800l0 4500 4050 0 150 -6300c0,-2700 -600,-4650 -2400,-5700 -1350,-750 -3450,-750 -4800,300 -450,300 -600,750 -1050,1050z"/>
  <polygon class="fil0" points="2100,23100 6300,23100 6300,10800 2100,10800 "/>
  <path class="fil0" d="M3450 5250c-2700,600 -1800,4650 1350,3900 2550,-750 1800,-4800 -1350,-3900z"/>
 </g>
</svg>
